<?xml version="1.0" encoding="UTF-8" standalone="no"?>
<!DOCTYPE svg PUBLIC "-//W3C//DTD SVG 1.1//EN"
 "http://www.w3.org/Graphics/SVG/1.1/DTD/svg11.dtd">
<!-- Generated by graphviz version 2.43.0 (0)
 -->
<!-- Title: tiered Pages: 1 -->
<svg width="437pt" height="476pt"
 viewBox="0.00 0.00 436.50 476.00" xmlns="http://www.w3.org/2000/svg" xmlns:xlink="http://www.w3.org/1999/xlink">
<g id="graph0" class="graph" transform="scale(1 1) rotate(0) translate(4 472)">
<title>tiered</title>
<polygon fill="white" stroke="transparent" points="-4,4 -4,-472 432.5,-472 432.5,4 -4,4"/>
<text text-anchor="middle" x="214.25" y="-37.8" font-family="Times,serif" font-size="14.00">PDSL Tiered Architecture</text>
<text text-anchor="middle" x="214.25" y="-22.8" font-family="Times,serif" font-size="14.00">Share everything you can!</text>
<text text-anchor="middle" x="214.25" y="-7.8" font-family="Times,serif" font-size="14.00">Ideally you can use the same Listener/Visitor for all platforms as well!</text>
<!-- Lexers/Parsers -->
<g id="node1" class="node">
<title>Lexers/Parsers</title>
<polygon fill="none" stroke="black" points="272.5,-468 176.5,-468 176.5,-432 272.5,-432 272.5,-468"/>
<text text-anchor="middle" x="224.5" y="-446.3" font-family="Times,serif" font-size="14.00">Lexers/Parsers</text>
</g>
<!-- DSL -->
<g id="node2" class="node">
<title>DSL</title>
<polygon fill="none" stroke="black" points="251.5,-395 197.5,-395 197.5,-359 251.5,-359 251.5,-395"/>
<text text-anchor="middle" x="224.5" y="-373.3" font-family="Times,serif" font-size="14.00">DSL</text>
</g>
<!-- Lexers/Parsers&#45;&gt;DSL -->
<g id="edge1" class="edge">
<title>Lexers/Parsers&#45;&gt;DSL</title>
<path fill="none" stroke="black" d="M224.5,-431.81C224.5,-423.79 224.5,-414.05 224.5,-405.07"/>
<polygon fill="black" stroke="black" points="228,-405.03 224.5,-395.03 221,-405.03 228,-405.03"/>
</g>
<!-- Tests -->
<g id="node3" class="node">
<title>Tests</title>
<polygon fill="none" stroke="black" points="251.5,-308 197.5,-308 197.5,-272 251.5,-272 251.5,-308"/>
<text text-anchor="middle" x="224.5" y="-286.3" font-family="Times,serif" font-size="14.00">Tests</text>
</g>
<!-- DSL&#45;&gt;Tests -->
<g id="edge2" class="edge">
<title>DSL&#45;&gt;Tests</title>
<path fill="none" stroke="black" d="M224.5,-358.8C224.5,-347.16 224.5,-331.55 224.5,-318.24"/>
<polygon fill="black" stroke="black" points="228,-318.18 224.5,-308.18 221,-318.18 228,-318.18"/>
<text text-anchor="middle" x="271.5" y="-329.8" font-family="Times,serif" font-size="14.00">Feature Files, etc</text>
</g>
<!-- Listener/Visitor -->
<g id="node4" class="node">
<title>Listener/Visitor</title>
<polygon fill="none" stroke="black" points="275.5,-235 173.5,-235 173.5,-199 275.5,-199 275.5,-235"/>
<text text-anchor="middle" x="224.5" y="-213.3" font-family="Times,serif" font-size="14.00">Listener/Visitor</text>
</g>
<!-- Tests&#45;&gt;Listener/Visitor -->
<g id="edge3" class="edge">
<title>Tests&#45;&gt;Listener/Visitor</title>
<path fill="none" stroke="black" d="M224.5,-271.81C224.5,-263.79 224.5,-254.05 224.5,-245.07"/>
<polygon fill="black" stroke="black" points="228,-245.03 224.5,-235.03 221,-245.03 228,-245.03"/>
</g>
<!-- Interfaces -->
<g id="node5" class="node">
<title>Interfaces</title>
<polygon fill="none" stroke="black" points="259.5,-162 189.5,-162 189.5,-126 259.5,-126 259.5,-162"/>
<text text-anchor="middle" x="224.5" y="-140.3" font-family="Times,serif" font-size="14.00">Interfaces</text>
</g>
<!-- Listener/Visitor&#45;&gt;Interfaces -->
<g id="edge4" class="edge">
<title>Listener/Visitor&#45;&gt;Interfaces</title>
<path fill="none" stroke="black" d="M224.5,-198.81C224.5,-190.79 224.5,-181.05 224.5,-172.07"/>
<polygon fill="black" stroke="black" points="228,-172.03 224.5,-162.03 221,-172.03 228,-172.03"/>
</g>
<!-- Web Implementation -->
<g id="node6" class="node">
<title>Web Implementation</title>
<polygon fill="none" stroke="black" points="133,-89 0,-89 0,-53 133,-53 133,-89"/>
<text text-anchor="middle" x="66.5" y="-67.3" font-family="Times,serif" font-size="14.00">Web Implementation</text>
</g>
<!-- Interfaces&#45;&gt;Web Implementation -->
<g id="edge5" class="edge">
<title>Interfaces&#45;&gt;Web Implementation</title>
<path fill="none" stroke="black" d="M189.43,-127.24C167.2,-117.25 138.16,-104.2 113.89,-93.3"/>
<polygon fill="black" stroke="black" points="115.06,-89.98 104.51,-89.08 112.19,-96.37 115.06,-89.98"/>
</g>
<!-- Mobile Implementation -->
<g id="node7" class="node">
<title>Mobile Implementation</title>
<polygon fill="none" stroke="black" points="298,-89 151,-89 151,-53 298,-53 298,-89"/>
<text text-anchor="middle" x="224.5" y="-67.3" font-family="Times,serif" font-size="14.00">Mobile Implementation</text>
</g>
<!-- Interfaces&#45;&gt;Mobile Implementation -->
<g id="edge6" class="edge">
<title>Interfaces&#45;&gt;Mobile Implementation</title>
<path fill="none" stroke="black" d="M224.5,-125.81C224.5,-117.79 224.5,-108.05 224.5,-99.07"/>
<polygon fill="black" stroke="black" points="228,-99.03 224.5,-89.03 221,-99.03 228,-99.03"/>
</g>
<!-- API Implentation -->
<g id="node8" class="node">
<title>API Implentation</title>
<polygon fill="none" stroke="black" points="428.5,-89 316.5,-89 316.5,-53 428.5,-53 428.5,-89"/>
<text text-anchor="middle" x="372.5" y="-67.3" font-family="Times,serif" font-size="14.00">API Implentation</text>
</g>
<!-- Interfaces&#45;&gt;API Implentation -->
<g id="edge7" class="edge">
<title>Interfaces&#45;&gt;API Implentation</title>
<path fill="none" stroke="black" d="M259.57,-126.17C279.99,-116.38 305.94,-103.93 327.81,-93.44"/>
<polygon fill="black" stroke="black" points="329.41,-96.56 336.91,-89.07 326.38,-90.24 329.41,-96.56"/>
</g>
</g>
</svg>
